<?xml version="1.0" standalone="no"?>
<!DOCTYPE svg PUBLIC "-//W3C//DTD SVG 20010904//EN"
 "http://www.w3.org/TR/2001/REC-SVG-20010904/DTD/svg10.dtd">
<svg version="1.0" xmlns="http://www.w3.org/2000/svg"
 width="283.000000pt" height="136.000000pt" viewBox="0 0 283.000000 136.000000"
 preserveAspectRatio="xMidYMid meet">

<g transform="translate(0.000000,136.000000) scale(0.100000,-0.100000)"
fill="#000000" stroke="none">
<path d="M1295 1280 c-3 -5 -17 -10 -31 -10 -14 0 -24 -6 -24 -14 0 -8 -8 -17
-17 -19 -11 -3 -7 -5 10 -6 18 -1 27 4 27 14 0 10 10 15 30 15 17 0 30 4 30 9
0 15 -18 23 -25 11z"/>
<path d="M1420 1261 c0 -11 -8 -22 -17 -24 -11 -3 -7 -5 10 -6 22 -1 27 3 27
24 0 14 -4 25 -10 25 -5 0 -10 -9 -10 -19z"/>
<path d="M1338 1263 c6 -2 18 -2 25 0 6 3 1 5 -13 5 -14 0 -19 -2 -12 -5z"/>
<path d="M1420 1160 c0 -31 -4 -40 -17 -41 -10 -1 -25 -2 -33 -3 -8 -2 -23 -3
-32 -4 -19 -2 -26 -42 -8 -42 6 0 10 7 10 15 0 11 12 15 50 15 l50 0 0 50 c0
28 -4 50 -10 50 -5 0 -10 -18 -10 -40z"/>
<path d="M1903 1176 c4 -6 7 -88 7 -183 l0 -173 -45 0 c-25 0 -45 -4 -45 -10
0 -5 25 -10 55 -10 l55 0 0 174 c0 152 -2 176 -17 193 -10 10 -15 14 -10 9z"/>
<path d="M1148 1025 c4 -154 4 -154 -22 -180 -24 -24 -31 -25 -131 -25 -58 0
-104 -4 -101 -8 7 -11 226 -3 248 9 9 5 20 24 23 43 10 50 1 294 -10 305 -7 7
-9 -41 -7 -144z"/>
<path d="M1603 1113 c-10 -3 -13 -42 -13 -148 l0 -144 -47 -4 c-47 -3 -47 -3
10 -5 l57 -2 0 144 c0 103 3 145 12 148 7 3 8 7 3 10 -6 3 -16 3 -22 1z"/>
<path d="M1756 1112 c-3 -3 -6 -70 -6 -149 l0 -143 -45 0 c-25 0 -45 -5 -45
-11 0 -6 21 -9 53 -7 l52 3 3 147 c2 129 5 147 20 150 14 3 13 5 -5 10 -12 3
-24 3 -27 0z"/>
<path d="M987 1103 c-11 -10 -8 -61 3 -68 6 -4 10 6 10 24 0 18 7 34 18 40 15
9 15 10 -4 11 -11 0 -24 -3 -27 -7z"/>
<path d="M1418 1018 l-3 -43 -47 -3 c-43 -3 -48 -5 -48 -28 0 -13 5 -24 10
-24 6 0 10 9 10 20 0 17 7 20 50 20 l50 0 0 44 c0 58 -18 69 -22 14z"/>
<path d="M1030 1010 c0 -5 -11 -10 -25 -10 -22 0 -25 -4 -25 -40 0 -22 5 -40
10 -40 6 0 10 16 10 35 0 28 4 35 20 35 11 0 20 7 20 15 0 8 -2 15 -5 15 -3 0
-5 -4 -5 -10z"/>
<path d="M1418 868 l-3 -43 -93 -3 c-51 -1 -91 -6 -88 -10 2 -4 49 -6 105 -4
l101 3 0 44 c0 57 -18 68 -22 13z"/>
<path d="M280 510 c0 -47 -2 -50 -25 -50 l-25 0 0 -155 0 -155 -50 0 c-28 0
-50 -5 -50 -10 0 -7 22 -10 58 -8 l57 3 3 158 3 157 24 0 c24 0 25 3 25 55 0
30 -4 55 -10 55 -5 0 -10 -22 -10 -50z"/>
<path d="M817 463 c-9 -134 -9 -203 2 -203 12 0 25 280 13 292 -5 5 -11 -29
-15 -89z"/>
<path d="M990 453 c0 -59 -3 -146 -7 -192 -6 -79 -8 -84 -37 -103 -25 -16 -46
-18 -113 -16 -44 2 -76 0 -70 -4 7 -4 51 -8 99 -8 76 0 90 3 113 23 27 23 27
23 32 208 4 134 3 188 -6 193 -8 5 -11 -22 -11 -101z"/>
<path d="M1240 506 c0 -44 0 -45 -37 -48 l-38 -3 -3 -89 c-4 -126 12 -144 18
-21 l5 100 38 3 37 3 0 50 c0 27 -4 49 -10 49 -5 0 -10 -20 -10 -44z"/>
<path d="M1855 540 c-3 -5 1 -10 10 -10 9 0 13 5 10 10 -3 6 -8 10 -10 10 -2
0 -7 -4 -10 -10z"/>
<path d="M2280 505 c0 -44 0 -45 -34 -45 -22 0 -36 -6 -40 -16 -10 -26 -7
-182 4 -189 6 -4 10 26 10 84 0 100 4 106 60 110 17 1 20 8 20 51 0 28 -4 50
-10 50 -5 0 -10 -20 -10 -45z"/>
<path d="M2460 485 c0 -37 4 -65 10 -65 6 0 10 28 10 65 0 37 -4 65 -10 65 -6
0 -10 -28 -10 -65z"/>
<path d="M2638 388 c0 -90 -2 -167 -3 -173 -2 -5 -3 -24 -4 -42 -1 -31 -2 -32
-53 -36 l-53 -3 61 -2 62 -2 4 54 c10 122 9 366 -1 366 -7 0 -12 -55 -13 -162z"/>
<path d="M638 470 c4 -61 2 -75 -16 -99 -19 -26 -19 -29 -4 -45 12 -12 18 -39
20 -96 l4 -80 -51 0 c-29 0 -51 -5 -51 -10 0 -7 22 -10 58 -8 l57 3 0 81 c0
65 -4 86 -18 102 -18 20 -18 21 0 30 15 9 18 24 18 91 0 46 -5 85 -11 91 -9 9
-10 -7 -6 -60z"/>
<path d="M1638 530 c17 -20 16 -130 -3 -156 -18 -27 -7 -39 17 -17 14 12 18
31 18 83 0 57 -3 70 -22 86 -13 10 -17 12 -10 4z"/>
<path d="M2010 530 c0 -8 9 -87 20 -174 28 -226 30 -214 -27 -219 -47 -3 -47
-3 10 -5 55 -2 57 -1 57 23 0 56 -42 371 -51 380 -6 5 -9 4 -9 -5z"/>
<path d="M78 453 c6 -2 18 -2 25 0 6 3 1 5 -13 5 -14 0 -19 -2 -12 -5z"/>
<path d="M460 430 c0 -16 5 -30 10 -30 6 0 10 11 10 24 0 15 7 26 18 29 10 3
6 5 -10 6 -25 1 -28 -3 -28 -29z"/>
<path d="M1480 435 c0 -14 5 -25 10 -25 6 0 10 9 10 21 0 11 5 17 10 14 6 -3
10 -1 10 4 0 6 -9 11 -20 11 -15 0 -20 -7 -20 -25z"/>
<path d="M1825 438 c-2 -7 -8 -43 -13 -80 -6 -51 -6 -68 3 -68 8 0 15 26 19
70 l7 70 35 0 c21 0 33 4 29 10 -9 14 -75 12 -80 -2z"/>
<path d="M1648 274 c5 -71 -3 -100 -31 -116 -12 -7 -74 -16 -137 -19 l-115 -6
133 1 c128 1 135 2 153 25 23 28 27 142 7 159 -10 8 -12 -1 -10 -44z"/>
<path d="M2458 228 l-3 -83 -50 -6 -50 -6 63 -1 62 -2 0 84 c0 72 3 85 18 89
10 3 7 5 -10 6 l-27 1 -3 -82z"/>
<path d="M1470 281 c0 -11 5 -23 10 -26 6 -3 10 1 10 10 0 8 10 20 23 25 20 8
19 9 -10 9 -26 1 -33 -3 -33 -18z"/>
<path d="M460 220 l0 -70 -56 0 c-37 0 -53 -4 -49 -11 4 -6 30 -9 64 -7 l56 4
3 69 c2 40 8 73 15 77 8 5 4 8 -10 8 -22 0 -23 -4 -23 -70z"/>
<path d="M1240 195 l0 -45 -77 -1 c-97 -1 -70 -17 30 -18 l67 -1 0 55 c0 30
-4 55 -10 55 -5 0 -10 -20 -10 -45z"/>
<path d="M2280 185 l0 -44 -67 -4 -68 -3 78 -2 77 -2 0 50 c0 28 -4 50 -10 50
-5 0 -10 -20 -10 -45z"/>
<path d="M1790 176 c0 -34 -1 -35 -47 -39 -47 -3 -47 -3 10 -5 l57 -2 0 35 0
34 68 4 67 3 -77 2 -78 2 0 -34z"/>
<path d="M1951 83 c-8 -15 -21 -17 -70 -15 -38 2 -61 -1 -61 -7 0 -7 29 -11
75 -11 73 0 75 1 75 25 0 29 -5 32 -19 8z"/>
</g>
</svg>
