<svg width="120" height="120" viewBox="0 0 120 120" fill="none" xmlns="http://www.w3.org/2000/svg">
<path opacity="0.8" d="M83.4375 55.3125C85.0781 56.25 86.25 58.125 86.25 60C86.25 62.1094 85.0781 63.9844 83.4375 64.9219L49.6875 85.5469C48.0469 86.4844 45.7031 86.7188 44.0625 85.5469C42.1875 84.6094 41.25 82.7344 41.25 80.625V39.375C41.25 37.5 42.1875 35.625 44.0625 34.6875C45.7031 33.5156 48.0469 33.5156 49.6875 34.6875L83.4375 55.3125ZM45 39.375V80.625C45 81.3281 45.2344 82.0312 45.9375 82.2656C46.4062 82.7344 47.1094 82.7344 47.8125 82.2656L81.5625 61.6406C82.0312 61.4062 82.5 60.7031 82.5 60C82.5 59.5312 82.0312 58.8281 81.5625 58.5938L47.8125 37.9688C47.1094 37.5 46.4062 37.5 45.9375 37.7344C45.2344 38.2031 45 38.9062 45 39.375ZM0 60C0 26.9531 26.7188 0 60 0C93.0469 0 120 26.9531 120 60C120 93.2812 93.0469 120 60 120C26.7188 120 0 93.2812 0 60ZM60 116.25C90.9375 116.25 116.25 91.1719 116.25 60C116.25 29.0625 90.9375 3.75 60 3.75C28.8281 3.75 3.75 29.0625 3.75 60C3.75 91.1719 28.8281 116.25 60 116.25Z" fill="white"/>
</svg>
