<svg width="96" height="96" viewBox="0 0 96 96" fill="none" xmlns="http://www.w3.org/2000/svg">
<g clip-path="url(#clip0_7734_3132)">
<rect x="28.1914" y="31.238" width="38.8571" height="36.5714" fill="white"/>
<path d="M76.062 14.0341H19.938C8.92652 14.0341 0 22.9606 0 33.972V62.0281C0 73.0396 8.92652 81.9661 19.938 81.9661H76.062C87.0735 81.9661 96 73.0396 96 62.0281V33.972C96 22.9606 87.0735 14.0341 76.062 14.0341ZM62.5781 49.3651L36.3271 61.8853C35.6276 62.2189 34.8196 61.7089 34.8196 60.934V35.1111C34.8196 34.3252 35.6488 33.8158 36.3498 34.1711L62.6008 47.4738C63.3813 47.8693 63.3678 48.9886 62.5781 49.3651Z" fill="#F61C0D"/>
</g>
<defs>
<clipPath id="clip0_7734_3132">
<rect width="96" height="96" fill="white"/>
</clipPath>
</defs>
</svg>
